<?xml version="1.0" standalone="no"?>
<!DOCTYPE svg PUBLIC "-//W3C//DTD SVG 20010904//EN"
 "http://www.w3.org/TR/2001/REC-SVG-20010904/DTD/svg10.dtd">
<svg version="1.0" xmlns="http://www.w3.org/2000/svg"
 width="480.000000pt" height="480.000000pt" viewBox="0 0 480.000000 480.000000"
 preserveAspectRatio="xMidYMid meet">
<metadata>
Created by potrace 1.11, written by Peter Selinger 2001-2013
</metadata>
<g transform="translate(0.000000,480.000000) scale(0.100000,-0.100000)"
fill="#000000" stroke="none">
<path d="M1650 4736 c-47 -24 -96 -50 -110 -57 -35 -19 -204 -130 -210 -138
-3 -3 -25 -22 -50 -41 -71 -54 -198 -174 -276 -261 -128 -141 -227 -333 -284
-549 -34 -126 -64 -347 -52 -367 4 -6 208 -144 455 -307 402 -268 486 -329
430 -312 -51 15 -497 137 -514 141 -9 2 -69 18 -134 35 -65 17 -126 33 -136
35 -10 2 -28 9 -41 16 -13 7 -24 11 -26 10 -1 -2 -43 7 -93 20 -56 15 -94 30
-100 41 -14 26 -20 77 -21 194 -4 294 50 524 201 848 23 49 40 90 38 92 -11
11 -136 -152 -206 -268 -75 -126 -189 -398 -207 -498 -3 -14 -11 -50 -19 -80
-25 -98 -29 -143 -30 -280 0 -105 7 -222 14 -236 1 -1 18 -5 38 -9 21 -5 43
-9 49 -11 6 -1 60 -14 120 -29 60 -15 118 -29 129 -31 11 -2 30 -6 43 -9 12
-3 30 -7 40 -9 9 -2 68 -16 130 -31 62 -15 120 -28 130 -30 9 -2 17 -4 17 -5
0 -2 14 -5 65 -14 20 -3 158 -36 310 -73 14 -3 30 -7 36 -8 6 -2 51 -13 100
-25 49 -12 100 -24 114 -26 64 -12 78 -26 38 -38 -28 -9 -208 -57 -228 -61 -8
-2 -15 -4 -15 -5 0 -1 -7 -3 -15 -5 -30 -6 -216 -56 -240 -65 -14 -5 -42 -12
-64 -15 -21 -3 -43 -8 -48 -11 -9 -6 -117 -36 -171 -49 -10 -2 -27 -7 -37 -10
-10 -3 -28 -8 -39 -10 -12 -2 -65 -16 -118 -31 -54 -14 -102 -27 -108 -28 -5
-2 -30 -8 -55 -15 -25 -7 -52 -15 -60 -16 -62 -14 -218 -58 -232 -66 -10 -6
-17 -13 -14 -17 2 -4 7 -60 11 -125 3 -65 8 -128 10 -140 2 -12 6 -39 9 -59 5
-35 73 -269 111 -383 61 -183 251 -485 385 -611 75 -70 114 -103 119 -99 2 3
-28 60 -67 127 -94 164 -205 410 -227 504 -2 11 -18 69 -35 129 -17 61 -33
117 -35 125 -2 8 -8 27 -13 41 -6 14 -13 50 -17 80 -4 30 -9 57 -11 60 -2 3
-6 45 -10 92 l-6 86 69 20 c37 11 79 22 93 25 14 3 72 19 130 36 58 17 116 33
130 36 14 2 39 9 55 14 17 5 55 16 85 24 106 28 425 116 465 127 22 7 45 13
50 15 6 1 53 14 105 28 121 34 140 38 140 28 0 -9 -9 -17 -105 -92 -39 -30
-74 -58 -80 -62 -16 -13 -51 -41 -82 -65 -93 -73 -211 -167 -228 -181 -11 -10
-49 -40 -85 -67 -126 -97 -325 -255 -353 -281 -15 -14 -25 -29 -23 -33 3 -4 8
-22 11 -39 6 -36 74 -245 103 -317 36 -90 121 -263 162 -331 22 -36 40 -70 40
-75 0 -5 5 -9 10 -9 6 0 13 -8 17 -17 21 -59 224 -274 354 -375 84 -65 221
-152 235 -148 4 1 10 -2 13 -7 11 -14 181 -93 181 -83 0 5 -9 15 -20 23 -71
50 -443 410 -492 477 -106 144 -217 412 -302 732 l-23 86 46 36 c25 19 57 45
71 58 14 13 75 64 135 113 125 102 300 247 330 274 11 9 50 41 88 71 37 29 67
57 67 62 0 4 7 8 15 8 8 0 15 4 15 8 0 4 23 26 52 47 29 22 72 57 96 78 39 34
71 49 58 29 -3 -5 -8 -33 -11 -63 -5 -52 -12 -105 -21 -161 -2 -16 -6 -55 -9
-88 -5 -58 -4 -60 14 -50 97 51 156 -83 111 -252 -12 -45 -11 -50 16 -95 47
-82 150 -210 160 -200 3 3 -6 40 -20 82 -33 97 -32 111 1 163 45 69 120 90
192 54 80 -40 97 -120 50 -234 -15 -38 -24 -68 -20 -68 11 0 87 90 132 156 49
72 60 105 45 135 -6 13 -13 58 -15 99 -3 83 15 142 48 160 25 13 68 13 76 0
11 -18 22 -1 18 27 -2 16 -5 42 -7 58 -15 118 -18 146 -27 194 -14 85 -13 94
13 80 11 -6 31 -21 42 -33 12 -12 55 -48 96 -81 41 -32 77 -62 80 -65 3 -3 41
-34 85 -69 44 -36 85 -69 90 -75 6 -6 33 -29 60 -51 28 -21 52 -42 55 -45 3
-3 41 -34 85 -70 86 -70 121 -99 139 -115 6 -6 57 -48 113 -94 115 -93 109
-73 71 -206 -22 -77 -85 -281 -95 -305 -3 -8 -7 -21 -9 -29 -8 -39 -162 -329
-198 -374 -71 -86 -336 -343 -456 -442 -57 -47 -63 -62 -14 -37 22 10 83 41
138 67 160 78 275 163 421 310 147 148 247 289 340 479 50 104 113 252 120
286 2 8 15 47 28 85 14 39 27 84 30 100 3 17 8 41 11 55 8 30 17 21 -179 175
-77 60 -149 117 -160 127 -18 14 -281 222 -360 284 -159 124 -251 198 -253
206 -4 8 10 7 63 -6 37 -9 609 -166 675 -185 36 -11 153 -42 260 -71 107 -29
206 -55 220 -60 14 -4 44 -13 66 -20 l41 -12 -3 -52 c-4 -56 -30 -231 -34
-231 -1 0 -3 -7 -5 -15 -1 -8 -15 -58 -29 -110 -15 -52 -29 -103 -31 -113 -2
-9 -6 -21 -9 -25 -3 -5 -7 -20 -10 -35 -9 -48 -83 -241 -134 -347 -51 -104
-62 -125 -135 -249 -21 -35 -35 -66 -33 -69 6 -5 69 49 137 117 19 20 61 70
92 111 31 41 61 80 65 85 27 34 72 105 72 113 0 6 4 12 8 14 14 5 118 229 140
298 11 36 34 112 52 170 17 58 34 112 37 120 3 8 7 22 8 30 1 8 5 31 8 50 5
32 12 108 22 261 2 31 -1 62 -6 70 -5 8 -9 11 -9 7 0 -4 -15 -2 -32 3 -59 19
-207 59 -233 63 -13 3 -28 7 -33 10 -5 3 -19 7 -33 10 -13 2 -69 17 -124 31
-55 15 -107 29 -115 30 -8 2 -15 4 -15 5 0 1 -7 3 -15 5 -8 1 -76 19 -150 39
-74 20 -142 39 -151 41 -10 2 -66 17 -125 33 -168 46 -168 46 -179 48 -5 1
-13 3 -17 4 -5 1 -11 3 -15 4 -16 4 -100 28 -150 42 -29 8 -53 19 -53 23 0 5
33 17 73 26 39 9 81 19 92 22 11 2 39 9 62 13 23 5 71 17 105 26 35 9 74 18
88 21 14 2 52 11 85 20 33 8 67 16 75 18 50 11 432 100 575 135 94 23 181 44
195 46 29 6 39 20 41 54 0 14 2 34 4 45 8 38 8 200 1 270 -4 39 -16 106 -28
150 -11 44 -21 87 -23 95 -7 34 -78 236 -86 245 -5 5 -9 15 -9 21 0 20 -81
182 -124 249 -78 122 -179 246 -190 234 -2 -2 15 -42 38 -89 74 -153 129 -301
151 -406 2 -11 10 -48 19 -84 22 -93 28 -156 30 -315 3 -202 -8 -250 -65 -260
-13 -3 -55 -14 -94 -25 -38 -11 -78 -22 -88 -25 -9 -2 -45 -11 -80 -20 -34 -9
-66 -18 -72 -19 -5 -2 -30 -9 -55 -16 -25 -7 -49 -14 -55 -16 -5 -1 -104 -27
-220 -59 -115 -31 -241 -65 -280 -76 -88 -24 -94 -24 -67 1 12 11 25 20 31 20
5 0 11 3 13 8 3 7 234 164 253 171 5 2 12 7 15 11 6 7 211 143 225 149 6 2 12
7 15 11 3 4 82 57 177 119 l172 113 -4 47 c-12 120 -15 151 -20 163 -2 7 -7
30 -10 52 -3 21 -7 42 -10 46 -3 5 -7 21 -9 37 -3 31 -84 272 -96 288 -4 6
-22 37 -39 70 -85 158 -276 358 -516 543 -81 62 -352 212 -384 212 -8 0 19
-23 60 -51 253 -175 436 -380 588 -662 43 -79 136 -304 145 -352 3 -16 14 -61
24 -100 11 -40 16 -77 11 -86 -4 -8 -27 -29 -51 -45 -44 -30 -47 -32 -85 -62
-12 -9 -44 -32 -70 -50 -26 -18 -103 -72 -170 -120 -66 -48 -129 -93 -140
-100 -10 -7 -126 -89 -258 -183 -132 -94 -249 -175 -259 -181 -17 -9 -18 -8
-12 13 9 30 33 128 40 160 3 13 16 74 30 134 25 110 31 139 42 205 3 19 8 38
10 41 1 3 6 28 9 56 3 27 7 60 10 72 2 13 7 49 10 80 3 31 8 67 10 81 21 124
27 502 9 606 -29 174 -88 294 -195 395 -58 54 -159 113 -212 123 -15 2 -31 7
-37 11 -15 9 -254 13 -302 4 -85 -15 -103 -21 -168 -55 -74 -38 -130 -87 -184
-158 -54 -72 -82 -133 -112 -243 -24 -88 -26 -116 -27 -283 0 -163 5 -286 18
-385 2 -16 7 -55 11 -85 3 -30 8 -64 9 -75 2 -11 6 -38 9 -60 3 -22 9 -53 12
-70 3 -16 7 -39 9 -50 6 -43 45 -221 91 -414 22 -94 25 -132 6 -105 -4 5 -20
18 -37 28 -16 11 -34 23 -40 28 -5 5 -120 87 -255 181 -135 95 -319 226 -410
291 -91 66 -178 129 -195 140 -16 12 -36 27 -43 34 -7 6 -23 17 -34 23 -17 9
-19 17 -14 47 4 21 9 48 11 62 1 14 8 37 14 53 6 15 8 27 6 27 -5 0 38 124 60
175 8 17 17 42 20 58 4 15 11 27 16 27 5 0 9 7 9 15 0 32 119 231 219 365 82
111 241 264 370 358 62 45 107 82 100 82 -8 -1 -52 -20 -99 -44z"/>
</g>
</svg>
